<?xml version="1.0" encoding="utf-8"?>
<!-- Generator: Adobe Illustrator 23.1.1, SVG Export Plug-In . SVG Version: 6.00 Build 0)  -->
<svg version="1.1" id="Layer_1" xmlns="http://www.w3.org/2000/svg" xmlns:xlink="http://www.w3.org/1999/xlink" x="0px" y="0px"
	 viewBox="0 0 10000 3000" style="enable-background:new 0 0 10000 3000;" xml:space="preserve">
<style type="text/css">
	.st0{fill:#FFFFFF;}
</style>
<g>
	<g>
		<g>
			<g>
				<path class="st0" d="M189,790.3h527.5c316.5,0,565.9,153.5,565.9,505.9c0,203.8-122.3,369.2-316.5,431.6l448.4,661.7
					l-345.3,83.9l-558.7-860.7h-4.8v822.4L189,2454.2V790.3z M505.5,1535.9h115.1c155.9,0,306.9-45.6,306.9-230.2
					c0-189.4-143.8-211-299.7-211H505.5V1535.9z"/>
			</g>
		</g>
		<g>
			<g>
				<path class="st0" d="M2603.5,2312.7c-148.6,103.1-330.9,160.7-510.7,160.7c-359.7,0-676.2-280.5-676.2-647.3
					c0-366.8,316.5-647.4,676.2-647.4c251.7,0,472.3,151,580.2,376.4L1838.6,2073c24,50.3,91.1,122.3,237.4,122.3
					c155.8,0,270.9-60,398-143.9L2603.5,2312.7z M2289.4,1512c-57.6-57.5-131.9-79.1-213.4-79.1c-191.8,0-345.3,155.9-362.1,342.9
					c0,26.4,0,52.7,4.8,81.5L2289.4,1512z"/>
			</g>
		</g>
		<g>
			<path class="st0" d="M4053.8,1204.2c0.6-2.3,1.9-4.2,2.8-6.3l-486.2-368.1v-466h-323.6V585l-442.7-335.3L2651,133.7l-153.1,115.9
				l-1180.6,893.8c3.8,16.5,7,33.5,9.5,50.9C1798.3,926.9,2647.8,445,2647.8,445s946.1,534.6,1398.2,790L4053.8,1204.2z"/>
		</g>
		<g>
			<g>
				<path class="st0" d="M4224.4,1006l304.5-136.6V1217h275.7v263.8h-275.7v520.3c0,117.5,50.4,194.2,227.8,194.2
					c33.6,0,71.9-2.4,105.5-4.8l-74.3,273.3c-28.7,7.2-81.5,9.6-119.9,9.6c-256.5,0-443.6-136.7-443.6-407.6v-585h-187l67.1-263.8
					h119.9V1006z"/>
			</g>
		</g>
		<g>
			<g>
				<path class="st0" d="M2824.1,1217l287.7-28.8v167.8h4.8c103.1-139.1,203.8-177.4,374-177.4c251.7,0,419.6,160.6,419.6,419.6
					v836.8l-304.5,19.2v-774.5c0-129.5-59.9-237.3-196.6-237.3c-191.8,0-280.5,146.2-280.5,299.7v692.9l-304.5,19.2V1217z"/>
			</g>
		</g>
		<g>
			<g>
				<path class="st0" d="M5308.2,2435.1l-316.5,19.2v-1664h469.9c376.5,0,532.3,304.5,532.3,517.9c0,333.3-230.2,541.9-558.6,541.9
					c-43.2,0-83.9-2.4-127.1-7.2V2435.1z M5308.2,1545.5h76.7c189.4,0,292.5-69.5,292.5-225.4c0-155.8-103-225.4-292.5-225.4h-76.7
					V1545.5z"/>
			</g>
		</g>
		<g>
			<g>
				<path class="st0" d="M6425.5,1408.9h4.8c105.5-189.4,242.1-227.8,453.2-230.2L6778,1502.4c-232.6,0-335.7,136.7-335.7,347.6v585
					l-304.5,19.2V1217l287.7-28.8V1408.9z"/>
			</g>
		</g>
		<g>
			<g>
				<path class="st0" d="M8065.6,2312.7c-148.7,103.1-330.9,160.7-510.7,160.7c-359.6,0-676.2-280.5-676.2-647.3
					c0-366.8,316.5-647.4,676.2-647.4c251.7,0,472.3,151,580.2,376.4L7300.7,2073c24,50.3,91.1,122.3,237.4,122.3
					c155.8,0,270.9-60,398-143.9L8065.6,2312.7z M7751.5,1512c-57.5-57.5-131.9-79.1-213.4-79.1c-191.9,0-345.3,155.9-362.1,342.9
					c0,26.4,0,52.7,4.8,81.5L7751.5,1512z"/>
			</g>
		</g>
	</g>
	<g>
		<g>
			<g>
				<g>
					<path class="st0" d="M2499.6,765.7v47.6h135.8V664.5h-43.1C2530,664.5,2499.6,697.6,2499.6,765.7z M2717.1,664.5h-43.9v148.7
						h138.5v-47.6C2811.7,697.6,2779.7,664.5,2717.1,664.5z M2673.2,1004.7h43.9c62.6,0,94.6-35,94.6-102.9v-49.9h-138.5V1004.7z
						 M2499.6,901.7c0,67.9,30.4,102.9,92.8,102.9h43.1V851.8h-135.8V901.7z"/>
				</g>
			</g>
		</g>
	</g>
	<g>
		<path class="st0" d="M9299.8,1805.3l-88.2,340.9l-584.1-70.7l97.6-598.2l567.1,114.8l172-102
			c-103.5-183.1-287.9-311.3-511.5-311.3c-167.8,0-251.7,43.1-378.8,170.2v-170.2l-287.7,38.4v1649.6l304.5-38.4V2344
			c112.7,93.5,239.8,129.4,359.7,129.4c354.8,0,604.2-330.9,604.2-640.2c0-69.1-10.6-136.6-29.6-200.6L9299.8,1805.3z"/>
	</g>
	<g>
		<path class="st0" d="M9805.6,1349.9c-3.9-5.7-10.1-8.8-16.5-8.8c-3.5,0-7.1,0.9-10.2,2.7l-760.1,450.9l-120.2-166.9
			c-3.9-5.4-10-8.3-16.2-8.3c-3.4,0-6.9,0.9-10.1,2.8l-85.8,50.4c-9.6,5.6-12.7,17.8-7.1,27.3l174.8,298.2c2.9,5,7.8,8.4,13.4,9.5
			c1.3,0.3,2.5,0.3,3.8,0.3c4.3,0,8.7-1.4,12.2-4.1l817.7-627.1C9809.6,1370.5,9811.5,1358.6,9805.6,1349.9z"/>
	</g>
</g>
</svg>
